<svg xmlns="http://www.w3.org/2000/svg" viewBox="0 0 308.47 59.03"><title>f-logo</title><g id="圖層_6" data-name="圖層 6"><path d="M31.78,25.38H22.84a50.94,50.94,0,0,1,7.22,6.36L27.74,33A20,20,0,0,0,26,31c-18.66.86-20.45.93-21.67,1.36a26.29,26.29,0,0,0-.82-2.57,4.26,4.26,0,0,0,2-1.07,30,30,0,0,0,3.75-3.33H0V23.27H31.78ZM3.25,12.58H.82V5.15H14.59v-2H2.9v-2h26v2H17.16v2H31v7.44h-2.5V7H17.16V17H14.59V7H3.25Zm.21,3c2.36-.71,5.76-1.89,9.12-3.07l.36,1.82c-3,1.21-6,2.43-8.47,3.4ZM27.6,20.74H4.08v-2H27.6ZM5.68,7.83a58.22,58.22,0,0,1,7,2.54l-1,1.72a49.26,49.26,0,0,0-7-2.75ZM23.81,29c-1.14-1-2.36-2-3.47-2.82l1.57-.79H12.8A44.5,44.5,0,0,1,8,29.64ZM27.39,9.62A43.58,43.58,0,0,1,19.7,12l-1-1.5A58.42,58.42,0,0,0,26.1,7.9Zm.29,8a61.15,61.15,0,0,0-8.9-3.43l.89-1.64a60.42,60.42,0,0,1,8.9,3.22Z" style="fill:#212121"/><path d="M67.61,32.75H64.89V30.89H49v1.86H46.41V21a61.69,61.69,0,0,1-5.94,1.72,7.45,7.45,0,0,0-1.36-2.43,49.69,49.69,0,0,0,13.48-4.9A67.56,67.56,0,0,0,45.8,9.76a33.87,33.87,0,0,1-4,2.4,8.86,8.86,0,0,0-1.82-2A29.39,29.39,0,0,0,51.92,0l3,.64a28.6,28.6,0,0,1-2.32,3H65.22l.43-.14,1.79,1.11c-2.93,5.68-8.08,10.08-14,13.23H67.61ZM50.27,6.11c-.75.75-1.57,1.43-2.4,2.15a70.91,70.91,0,0,1,7.19,5.65A28.16,28.16,0,0,0,63.5,6.11ZM64.89,28.46V20.34H49v8.12Z" style="fill:#212121"/><path d="M90.28,21.49c-.61-1.18-2.11-3.5-3.32-5.33V32.71H84.35V16.91a37.87,37.87,0,0,1-5.18,9.33,12,12,0,0,0-1.32-2.4A36.34,36.34,0,0,0,84,12.62H78.34v-2.5h6V4.72c-1.64.32-3.33.61-4.9.82a12.18,12.18,0,0,0-.79-2.07A54.22,54.22,0,0,0,90,.61l1.61,2.11A31.65,31.65,0,0,1,87,4.15v6h5.26v2.5H87v.64c1.11,1.25,4.18,5.18,4.93,6.15Zm16.16,1.89v9.33h-2.61v-8.9L92.18,25.74l-.43-2.54,12.08-1.93V.11h2.61V20.84l4.18-.64.39,2.43Zm-6.9-4.75a30.7,30.7,0,0,0-6.29-5.22l1.65-1.57a31.21,31.21,0,0,1,6.4,5Zm.79-9.44a27.93,27.93,0,0,0-5.68-5.08l1.68-1.54a26.47,26.47,0,0,1,5.83,4.9Z" style="fill:#212121"/><path d="M129.36,18.16c-1.43.43-2.9.86-4.29,1.29V29.57c0,1.5-.39,2.22-1.32,2.65s-2.39.5-4.83.46a9.93,9.93,0,0,0-.86-2.43c1.71,0,3.25,0,3.68,0s.71-.18.71-.68V20.24l-4.29,1.25-.75-2.61c1.43-.32,3.15-.75,5-1.29V9.8h-4.58V7.29h4.58V.14h2.61V7.29h4V9.8h-4v7.08c1.29-.36,2.65-.75,4-1.14Zm19-4a26.16,26.16,0,0,1-7.26,11.76,24.35,24.35,0,0,0,9.22,4.61,11,11,0,0,0-1.72,2.29,25.67,25.67,0,0,1-9.54-5.18,32.69,32.69,0,0,1-10.15,5.11,10.06,10.06,0,0,0-1.43-2.39,29.36,29.36,0,0,0,9.69-4.54,28.48,28.48,0,0,1-5.86-9.8l.11,0h-1.18V13.51h7.65V8.19h-8.37V5.72h8.37V.11h2.61V5.72h8.54V8.19h-8.54v5.33h5.68l.43-.11ZM133.94,16a24.32,24.32,0,0,0,5.26,8.22A21.79,21.79,0,0,0,145,16Z" style="fill:#212121"/><path d="M169.52,7.22c-.68,1.39-1.39,2.83-2.18,4.15h17.3V29.42c0,1.61-.36,2.39-1.5,2.82s-3.18.46-6.22.46A9,9,0,0,0,176,30.1c2.4.11,4.54.07,5.18.07s.82-.21.82-.75V25.71H166.69A12.83,12.83,0,0,1,163,33a8.54,8.54,0,0,0-1.86-2.07c3-2.86,3.29-6.79,3.29-10.19V15.48A30.06,30.06,0,0,1,158.69,21,17.9,17.9,0,0,0,157,18.88a29.16,29.16,0,0,0,9.62-11.66h-8.9V4.72h10A46.81,46.81,0,0,0,169.34.11L172,.75a39.78,39.78,0,0,1-1.39,4h18.23v2.5ZM182,23.42V19.7H167.12v1.07c0,.86,0,1.72-.11,2.65Zm0-9.65H167.12v3.61H182Z" style="fill:#212121"/><path d="M208.74,2.5c-1.07,2.9-2.36,6.4-3.58,9.22a11.48,11.48,0,0,1,3.22,7.79c0,1.86-.43,3.43-1.39,4.11a3.65,3.65,0,0,1-1.89.68,12.87,12.87,0,0,1-2.36.07,5.92,5.92,0,0,0-.68-2.36,10.3,10.3,0,0,0,2.07,0,2.12,2.12,0,0,0,1.11-.32,3.19,3.19,0,0,0,.75-2.47c0-1.93-.64-4.4-3.22-7.26,1-2.57,2.11-5.65,2.82-8h-5.18V32.71h-2.36V1.57h8.54l.39-.11Zm19.52,17.8a54,54,0,0,1-6.15,4.25,15.52,15.52,0,0,0,6.9,5.68,12.58,12.58,0,0,0-1.82,2.25c-5.58-2.65-8.9-8.12-10.69-15.19h-3.43V29.07l6.29-1.54A16.45,16.45,0,0,0,219.5,30c-7.36,2-8.44,2.36-9.15,2.82a8.1,8.1,0,0,0-1.18-2.18,2.64,2.64,0,0,0,1.32-2.5V1.68h15.62V17.3h-7.29a24.54,24.54,0,0,0,2.11,5.36,61.2,61.2,0,0,0,5.58-4.22ZM213.07,4V8.33h10.47V4Zm0,10.94h10.47V10.55H213.07Z" style="fill:#212121"/><path d="M248.25,2.07a47.56,47.56,0,0,1-10.47,15.19,20,20,0,0,0-2.36-2.14,37.23,37.23,0,0,0,9.94-13.94Zm10,17a111.21,111.21,0,0,1,8,12l-2.65,1.46c-.5-1-1.18-2.14-1.93-3.43-18.52,1.29-20.49,1.39-21.88,1.89a16.53,16.53,0,0,0-1-2.82c1-.21,2-1.39,3.36-3.07a79.61,79.61,0,0,0,9-14.09l3,1.25A93.72,93.72,0,0,1,243.68,27.6l16.52-.93c-1.39-2.22-3-4.54-4.43-6.43ZM259,1c1.72,5.65,5.29,11,9.47,13.76a14.07,14.07,0,0,0-2.07,2.47c-4-3-7.47-8.15-9.4-13.55H250.4V1Z" style="fill:#212121"/><path d="M305,28.82c0,1.82-.39,2.75-1.61,3.22s-3.47.5-6.65.5a9.57,9.57,0,0,0-.93-2.86c2.47.07,4.93.07,5.65,0s.86-.21.86-.89V5H276.57V2.43H305ZM298.2,11.08H276.82V8.69H298.2ZM281.69,26.28v2.61h-2.61v-14h16.7V26.28Zm0-9v6.65h11.48V17.27Z" style="fill:#212121"/><path d="M5.07,49.4l-4-8.07H2.89l1.69,3.73C5,46,5.41,47,5.88,47.94H6c.47-1,.92-1.91,1.31-2.88L9,41.33H10.7l-4,8.07v5.13H5.07Z" style="fill:#212121"/><path d="M14,49.08V41.33h1.67v7.8c0,3.19,1.35,4.18,3.06,4.18s3.15-1,3.15-4.18v-7.8h1.6v7.74c0,4.25-2.05,5.69-4.75,5.69S14,53.33,14,49.08Z" style="fill:#212121"/><path d="M28.86,41.33h1.73l4.81,8.32,1.4,2.72h.09c-.09-1.33-.22-2.81-.22-4.18V41.33h1.58v13.2H36.55L31.74,46.2l-1.42-2.72h-.07c.07,1.33.2,2.74.2,4.12v6.93H28.86Z" style="fill:#212121"/><path d="M49.49,41.33h2L54,48.39c.31.92.61,1.84.94,2.75h.09c.31-.92.59-1.84.9-2.75l2.52-7.06h2v13.2H58.94V47.22c0-1.13.13-2.74.21-3.89h-.07l-1,3-2.5,6.86H54.42l-2.5-6.86-1-3h-.07c.07,1.15.2,2.75.2,3.89v7.31H49.49Z" style="fill:#212121"/><path d="M65.91,41.33h1.67v13.2H65.91Z" style="fill:#212121"/><path d="M73,41.33h1.73l4.81,8.32,1.4,2.72H81c-.09-1.33-.22-2.81-.22-4.18V41.33h1.58v13.2H80.67L75.86,46.2l-1.42-2.72h-.07c.07,1.33.2,2.74.2,4.12v6.93H73Z" style="fill:#212121"/><path d="M87,47.94c0-4.27,2.56-6.86,6-6.86a5,5,0,0,1,3.8,1.64L96,43.8a3.71,3.71,0,0,0-2.86-1.26c-2.65,0-4.37,2.05-4.37,5.35s1.57,5.42,4.39,5.42a3.63,3.63,0,0,0,2.39-.77V49.08H92.73V47.69H97v5.55A5.67,5.67,0,0,1,93,54.77C89.49,54.77,87,52.23,87,47.94Z" style="fill:#212121"/><path d="M110.57,42.74h-4v-1.4h9.67v1.4h-4V54.53h-1.67Z" style="fill:#212121"/><path d="M118.18,49.65c0-3.17,2.14-5.15,4.41-5.15,2.49,0,3.89,1.8,3.89,4.59a6.52,6.52,0,0,1-.07.94h-6.59c.11,2.09,1.39,3.42,3.24,3.42a4.21,4.21,0,0,0,2.45-.77l.59,1.08a5.81,5.81,0,0,1-3.24,1C120.27,54.77,118.18,52.88,118.18,49.65Zm6.86-.79c0-2-.9-3-2.43-3s-2.61,1.12-2.81,3Z" style="fill:#212121"/><path d="M130,49.65c0-3.26,2.21-5.15,4.72-5.15a4.18,4.18,0,0,1,2.86,1.15l-.85,1.1a2.84,2.84,0,0,0-2-.88c-1.76,0-3.06,1.53-3.06,3.78s1.22,3.75,3,3.75a3.45,3.45,0,0,0,2.3-1l.7,1.1a4.66,4.66,0,0,1-3.15,1.24C131.95,54.77,130,52.89,130,49.65Z" style="fill:#212121"/><path d="M141.65,40.2h1.64v3.92l-.05,2a4.59,4.59,0,0,1,3.24-1.64c2.05,0,3,1.33,3,3.83v6.19h-1.64v-6c0-1.84-.56-2.61-1.86-2.61-1,0-1.69.5-2.68,1.49v7.09h-1.64Z" style="fill:#212121"/><path d="M154.38,44.76h1.35l.14,1.4h.05a4.69,4.69,0,0,1,3.28-1.66c2.05,0,3,1.33,3,3.83v6.19h-1.64v-6c0-1.84-.56-2.61-1.85-2.61-1,0-1.69.5-2.68,1.49v7.09h-1.64Z" style="fill:#212121"/><path d="M166.44,49.65c0-3.26,2.14-5.15,4.54-5.15s4.54,1.89,4.54,5.15-2.14,5.11-4.54,5.11S166.44,52.89,166.44,49.65Zm7.38,0c0-2.25-1.15-3.78-2.84-3.78s-2.83,1.53-2.83,3.78,1.13,3.75,2.83,3.75S173.82,51.9,173.82,49.65Z" style="fill:#212121"/><path d="M179.88,52.59V40.2h1.64V52.7c0,.5.22.7.47.7a1.43,1.43,0,0,0,.34,0l.23,1.26a2.6,2.6,0,0,1-1,.14C180.39,54.77,179.88,54,179.88,52.59Z" style="fill:#212121"/><path d="M186.07,49.65c0-3.26,2.14-5.15,4.54-5.15s4.54,1.89,4.54,5.15-2.14,5.11-4.54,5.11S186.07,52.89,186.07,49.65Zm7.38,0c0-2.25-1.15-3.78-2.85-3.78s-2.83,1.53-2.83,3.78,1.13,3.75,2.83,3.75S193.46,51.9,193.46,49.65Z" style="fill:#212121"/><path d="M198.76,56.41a2.77,2.77,0,0,1,1.46-2.21v-.07a1.77,1.77,0,0,1-.9-1.6,2.39,2.39,0,0,1,1.1-1.82v-.07A3.43,3.43,0,0,1,199.14,48a3.48,3.48,0,0,1,3.67-3.49,4,4,0,0,1,1.37.25h3.4V46h-2a2.79,2.79,0,0,1,.79,2,3.35,3.35,0,0,1-3.57,3.4,3.4,3.4,0,0,1-1.46-.34,1.45,1.45,0,0,0-.63,1.17c0,.63.4,1.06,1.71,1.06h1.91c2.27,0,3.4.72,3.4,2.32,0,1.82-1.91,3.39-4.93,3.39C200.42,59,198.76,58.1,198.76,56.41Zm7.4-.5c0-.9-.7-1.21-2-1.21h-1.69a5.53,5.53,0,0,1-1.26-.16,2.06,2.06,0,0,0-1,1.66c0,1,1.06,1.73,2.84,1.73S206.16,56.93,206.16,55.9ZM204.88,48a2.09,2.09,0,1,0-4.16,0,2.09,2.09,0,1,0,4.16,0Z" style="fill:#212121"/><path d="M210.77,58.55l.32-1.31a2.33,2.33,0,0,0,.74.16c1.12,0,1.82-.9,2.21-2.11l.22-.74-3.92-9.79H212l2,5.44c.29.85.63,1.85.94,2.74h.09c.27-.88.56-1.87.83-2.74l1.75-5.44h1.6l-3.69,10.59c-.68,1.93-1.69,3.4-3.64,3.4A3,3,0,0,1,210.77,58.55Z" style="fill:#212121"/><path d="M228.16,47.94c0-4.27,2.5-6.86,5.85-6.86a4.88,4.88,0,0,1,3.62,1.64l-.9,1.08a3.6,3.6,0,0,0-2.7-1.26c-2.5,0-4.16,2.05-4.16,5.35s1.58,5.42,4.1,5.42A4,4,0,0,0,237,51.83l.92,1a5.1,5.1,0,0,1-4.05,1.89C230.62,54.77,228.16,52.23,228.16,47.94Z" style="fill:#212121"/><path d="M241.32,49.65c0-3.26,2.14-5.15,4.54-5.15s4.54,1.89,4.54,5.15-2.14,5.11-4.54,5.11S241.32,52.89,241.32,49.65Zm7.38,0c0-2.25-1.15-3.78-2.84-3.78S243,47.4,243,49.65s1.13,3.75,2.83,3.75S248.7,51.9,248.7,49.65Z" style="fill:#212121"/><path d="M254.22,53.52a1.19,1.19,0,1,1,2.38,0,1.19,1.19,0,1,1-2.38,0Z" style="fill:#212121"/><path d="M260.67,57a2.7,2.7,0,0,0,1.8-2.45.76.76,0,0,1-.2,0,1.13,1.13,0,0,1-1.21-1.15,1.17,1.17,0,0,1,1.24-1.15c.86,0,1.39.74,1.39,1.94A4,4,0,0,1,261.06,58Z" style="fill:#212121"/><path d="M274.15,41.33h1.67V53.11h5.76v1.42h-7.44Z" style="fill:#212121"/><path d="M285.45,51.51V46.09H284V44.85l1.53-.09.2-2.74h1.37v2.74h2.65v1.33h-2.65v5.46c0,1.21.38,1.89,1.51,1.89a3.44,3.44,0,0,0,1.12-.25l.32,1.22a6.14,6.14,0,0,1-1.8.36C286.15,54.77,285.45,53.47,285.45,51.51Z" style="fill:#212121"/><path d="M292.78,49.65c0-3.17,2-5.15,4.23-5.15a4,4,0,0,1,2.75,1.15L299.67,44V40.2h1.64V54.53H300l-.16-1.15h0a4.36,4.36,0,0,1-3,1.39C294.36,54.77,292.78,52.91,292.78,49.65Zm6.9,2.39V46.92a3.43,3.43,0,0,0-2.38-1c-1.58,0-2.83,1.51-2.83,3.74s1,3.76,2.7,3.76A3.36,3.36,0,0,0,299.67,52Z" style="fill:#212121"/><path d="M306.1,53.52a1.19,1.19,0,1,1,2.38,0,1.19,1.19,0,1,1-2.38,0Z" style="fill:#212121"/></g></svg>